<mxfile host="app.diagrams.net" modified="2022-03-22T09:43:34.660Z" agent="5.0 (Windows NT 10.0; Win64; x64) AppleWebKit/537.36 (KHTML, like Gecko) Chrome/99.0.4844.82 Safari/537.36" etag="yADqQbtVDvfNTTdbKVJ5" version="16.5.3" type="github">
  <diagram id="ZKx9zjy7iOst4Df-iox1" name="第 1 页">
    <mxGraphModel dx="1038" dy="539" grid="1" gridSize="10" guides="1" tooltips="1" connect="1" arrows="1" fold="1" page="1" pageScale="1" pageWidth="827" pageHeight="1169" math="0" shadow="0">
      <root>
        <mxCell id="0" />
        <mxCell id="1" parent="0" />
        <mxCell id="bndzpAf4vowpiUw_1lPS-4" value="起点" style="ellipse;whiteSpace=wrap;html=1;" vertex="1" parent="1">
          <mxGeometry x="50" y="100" width="40" height="30" as="geometry" />
        </mxCell>
        <mxCell id="bndzpAf4vowpiUw_1lPS-5" value="终点" style="ellipse;whiteSpace=wrap;html=1;" vertex="1" parent="1">
          <mxGeometry x="630" y="100" width="40" height="30" as="geometry" />
        </mxCell>
        <mxCell id="bndzpAf4vowpiUw_1lPS-8" value="" style="shape=flexArrow;endArrow=classic;html=1;rounded=0;exitX=1;exitY=0.5;exitDx=0;exitDy=0;entryX=0;entryY=0.5;entryDx=0;entryDy=0;" edge="1" parent="1" source="bndzpAf4vowpiUw_1lPS-4" target="bndzpAf4vowpiUw_1lPS-5">
          <mxGeometry width="50" height="50" relative="1" as="geometry">
            <mxPoint x="100" y="120" as="sourcePoint" />
            <mxPoint x="740" y="80" as="targetPoint" />
          </mxGeometry>
        </mxCell>
        <mxCell id="bndzpAf4vowpiUw_1lPS-13" value="人生" style="edgeLabel;html=1;align=center;verticalAlign=middle;resizable=0;points=[];" vertex="1" connectable="0" parent="bndzpAf4vowpiUw_1lPS-8">
          <mxGeometry x="-0.2074" y="-4" relative="1" as="geometry">
            <mxPoint x="46" y="-29" as="offset" />
          </mxGeometry>
        </mxCell>
        <mxCell id="bndzpAf4vowpiUw_1lPS-14" value="1、什么是人生" style="text;html=1;strokeColor=none;fillColor=none;align=center;verticalAlign=middle;whiteSpace=wrap;rounded=0;fontStyle=1" vertex="1" parent="1">
          <mxGeometry x="40" y="40" width="100" height="30" as="geometry" />
        </mxCell>
        <mxCell id="bndzpAf4vowpiUw_1lPS-16" value="2、怎么过好这个人生" style="text;html=1;strokeColor=none;fillColor=none;align=center;verticalAlign=middle;whiteSpace=wrap;rounded=0;fontStyle=1" vertex="1" parent="1">
          <mxGeometry x="40" y="190" width="140" height="30" as="geometry" />
        </mxCell>
      </root>
    </mxGraphModel>
  </diagram>
</mxfile>
